<svg width="24" height="24" viewBox="0 0 24 24" fill="none" xmlns="http://www.w3.org/2000/svg">
  <path d="M14.5 4.5C14.5 3.11929 13.3807 2 12 2C10.6193 2 9.5 3.11929 9.5 4.5V15.7519C8.58588 16.5519 8 17.7469 8 19.0709C8 21.2359 9.79086 23 12 23C14.2091 23 16 21.2359 16 19.0709C16 17.7469 15.4141 16.5519 14.5 15.7519V4.5Z" stroke="#EF4444" stroke-width="2" stroke-linecap="round" stroke-linejoin="round"/>
  <path d="M12 19C12.8284 19 13.5 18.3284 13.5 17.5C13.5 16.6716 12.8284 16 12 16C11.1716 16 10.5 16.6716 10.5 17.5C10.5 18.3284 11.1716 19 12 19Z" fill="#EF4444"/>
</svg>